# xmcd CD database file
#
# Track frame offsets:
#	150
#	21544
#	43443
#	71466
#	92638
#	112116
#	128473
#	161902
#	186423
#	205942
#	226871
#	260551
#
# Disc length: 3783 seconds
#
# Revision: 0
# Processed by: cddbd v1.5.1PL0 Copyright (c) Steve Scherf et al.
# Submitted via: CDex 1.51
#
DISCID=b00ec50c
DTITLE=Nora Jean Bruso -  Going Back to Mississippi
DYEAR=2004
DGENRE=Blues
TTITLE0=Telling Me What to Do
TTITLE1=Miss Mae's Juke Joint
TTITLE2=All My Life
TTITLE3=Going Back to Mississippi
TTITLE4=Broken Heart
TTITLE5=I've Got Two Men
TTITLE6=Don't You Remember
TTITLE7=What I Been Through
TTITLE8=Tearful Blues
TTITLE9=Things Done Changed
TTITLE10=Another Part of You
TTITLE11=If You're Looking for Someone
EXTD=YEAR: 2004
EXTT0=
EXTT1=
EXTT2=
EXTT3=
EXTT4=
EXTT5=
EXTT6=
EXTT7=
EXTT8=
EXTT9=
EXTT10=
EXTT11=
PLAYORDER=
